<svg xmlns="http://www.w3.org/2000/svg" version="1.1" xmlns:xlink="http://www.w3.org/1999/xlink" xmlns:svgjs="http://svgjs.dev/svgjs" width="1000" height="1000" viewBox="0 0 1000 1000"><rect width="1000" height="1000" fill="#ffffff"></rect><g transform="matrix(0.7,0,0,0.7,150,106.25)"><svg viewBox="0 0 320 360" data-background-color="#ffffff" preserveAspectRatio="xMidYMid meet" height="1125" width="1000" xmlns="http://www.w3.org/2000/svg" xmlns:xlink="http://www.w3.org/1999/xlink"><g id="tight-bounds" transform="matrix(1,0,0,1,0,0)"><svg viewBox="0 0 320 360" height="360" width="320"><rect width="320" height="360" fill="url(#61d538b9-7e47-4aa3-80f3-36fff02e4498)" mask="url(&quot;#67fffc4f-3516-41a1-a383-d21984170bc5&quot;)" data-fill-palette-color="tertiary"></rect><g><svg></svg></g><g><svg viewBox="0 0 320 360" height="360" width="320"><g><path xmlns="http://www.w3.org/2000/svg" d="M320 187.111c0-45.764-20.238-86.866-52.203-114.908-28.043-31.964-69.145-52.203-114.908-52.203-84.302 0-152.889 68.587-152.889 152.889 0 45.753 20.231 86.848 52.185 114.891 28.043 31.975 69.152 52.22 114.926 52.22 0.299 0 0.59-0.021 0.889-0.021 0.299 0 0.59 0.021 0.889 0.021 83.456 0 151.111-67.655 151.111-151.111 0-0.299-0.021-0.59-0.021-0.889 0-0.299 0.021-0.59 0.021-0.889zM59.833 263.097c-15.093-21.255-24.071-47.143-24.256-75.097 0.48-72.928 59.492-131.943 132.423-132.423 27.954 0.185 53.845 9.163 75.097 24.256 24.366 23.627 39.57 56.64 39.57 93.056 0 71.559-58.219 129.778-129.778 129.778-36.416 0-69.429-15.204-93.056-39.57zM3.556 172.889c0-82.343 66.99-149.333 149.333-149.333 35.051 0 67.292 12.167 92.8 32.462-22.98-13.824-49.863-21.796-78.578-21.796-84.302 0-152.889 68.587-152.889 152.889 0 28.708 7.968 55.584 21.785 78.56-20.288-25.5-32.452-57.739-32.451-92.782zM167.111 318.667c-35.84 0-68.363-14.418-92.107-37.743 21.952 15.89 48.864 25.298 77.885 25.298 73.522 0 133.333-59.812 133.333-133.333 0-29.02-9.408-55.932-25.298-77.885 23.324 23.744 37.742 56.267 37.743 92.107 0 72.54-59.015 131.556-131.556 131.556z" fill="url(#61d538b9-7e47-4aa3-80f3-36fff02e4498)" fill-rule="nonzero" stroke="none" stroke-width="1" stroke-linecap="butt" stroke-linejoin="miter" stroke-miterlimit="10" stroke-dasharray="" stroke-dashoffset="0" font-family="none" font-weight="none" font-size="none" text-anchor="none" style="mix-blend-mode: normal" data-fill-palette-color="tertiary"></path></g><g transform="matrix(1,0,0,1,95.96875000000001,99)"><svg viewBox="0 0 128.06249999999997 162" height="162" width="128.06249999999997"><g><svg viewBox="0 0 128.06249999999997 162" height="162" width="128.06249999999997"><g><svg viewBox="0 0 128.06249999999997 162" height="162" width="128.06249999999997"><g><svg viewBox="0 0 128.06249999999997 162" height="162" width="128.06249999999997"><g id="textblocktransform"><svg viewBox="0 0 128.06249999999997 162" height="162" width="128.06249999999997" id="textblock"><g><svg viewBox="0 0 128.06249999999997 162" height="162" width="128.06249999999997"><g transform="matrix(1,0,0,1,0,0)"><svg width="128.06249999999997" viewBox="0.45000001788139343 -37.5 34.14999771118164 43.20000076293945" height="162" data-palette-color="#6974f1"><path d="M23.85-20.35L26.75-33.95Q24.7-32.85 22.4-29.83 20.1-26.8 17.75-22.1L17.75-22.1Q19.55-21.75 21.08-21.3 22.6-20.85 23.85-20.35L23.85-20.35ZM30.65-37.5L30.65-37.5Q31.7-37.5 32.75-37.33 33.8-37.15 34.6-36.8L34.6-36.8 26.75 0 19.55 0 23.4-18.15Q21.65-18.95 20.1-19.38 18.55-19.8 16.7-19.95L16.7-19.95Q13.85-13.75 12.03-7.35 10.2-0.95 10.2 2.9L10.2 2.9Q10.2 3.8 10.38 4.48 10.55 5.15 10.9 5.7L10.9 5.7Q7.1 5.7 5.65 4.4 4.2 3.1 4.2 0.4L4.2 0.4Q4.2-2.95 6.23-8.55 8.25-14.15 11.55-19.95L11.55-19.95Q9-19.8 7.58-19.15 6.15-18.5 5.7-17.35L5.7-17.35Q5.9-17.35 6.13-16.82 6.35-16.3 6.35-15.8L6.35-15.8Q6.35-14.95 5.55-14.4 4.75-13.85 3.55-13.85L3.55-13.85Q2.15-13.85 1.3-14.63 0.45-15.4 0.45-16.75L0.45-16.75Q0.45-19.35 3.38-21.13 6.3-22.9 10.65-22.9L10.65-22.9Q11.15-22.9 11.8-22.88 12.45-22.85 13.25-22.75L13.25-22.75Q17.65-29.7 22.2-33.6 26.75-37.5 30.65-37.5Z" opacity="1" transform="matrix(1,0,0,1,0,0)" fill="#6974f1" class="undefined-text-0" data-fill-palette-color="primary" id="text-0"></path></svg></g></svg></g></svg></g></svg></g><g></g></svg></g></svg></g></svg></g></svg></g><defs><linearGradient x1="0" x2="1" y1="0.548" y2="0.55" id="SvgjsLinearGradient1022"><stop stop-color="#ff6cab" offset="0"></stop><stop stop-color="#7366ff" offset="1"></stop></linearGradient><linearGradient x1="0" x2="1" y1="0.548" y2="0.55" id="29e0fa3e-90fd-4a3c-9cb5-a05bb034818c"><stop stop-color="#ff6cab" offset="0"></stop><stop stop-color="#7366ff" offset="1"></stop></linearGradient></defs><mask id="67fffc4f-3516-41a1-a383-d21984170bc5"><g id="SvgjsG1043"><svg viewBox="0 0 320 360" height="360" width="320"><g><svg></svg></g><g><svg viewBox="0 0 320 360" height="360" width="320"><g><path xmlns="http://www.w3.org/2000/svg" d="M320 187.111c0-45.764-20.238-86.866-52.203-114.908-28.043-31.964-69.145-52.203-114.908-52.203-84.302 0-152.889 68.587-152.889 152.889 0 45.753 20.231 86.848 52.185 114.891 28.043 31.975 69.152 52.22 114.926 52.22 0.299 0 0.59-0.021 0.889-0.021 0.299 0 0.59 0.021 0.889 0.021 83.456 0 151.111-67.655 151.111-151.111 0-0.299-0.021-0.59-0.021-0.889 0-0.299 0.021-0.59 0.021-0.889zM59.833 263.097c-15.093-21.255-24.071-47.143-24.256-75.097 0.48-72.928 59.492-131.943 132.423-132.423 27.954 0.185 53.845 9.163 75.097 24.256 24.366 23.627 39.57 56.64 39.57 93.056 0 71.559-58.219 129.778-129.778 129.778-36.416 0-69.429-15.204-93.056-39.57zM3.556 172.889c0-82.343 66.99-149.333 149.333-149.333 35.051 0 67.292 12.167 92.8 32.462-22.98-13.824-49.863-21.796-78.578-21.796-84.302 0-152.889 68.587-152.889 152.889 0 28.708 7.968 55.584 21.785 78.56-20.288-25.5-32.452-57.739-32.451-92.782zM167.111 318.667c-35.84 0-68.363-14.418-92.107-37.743 21.952 15.89 48.864 25.298 77.885 25.298 73.522 0 133.333-59.812 133.333-133.333 0-29.02-9.408-55.932-25.298-77.885 23.324 23.744 37.742 56.267 37.743 92.107 0 72.54-59.015 131.556-131.556 131.556z" fill="white" fill-rule="nonzero" stroke="none" stroke-width="1" stroke-linecap="butt" stroke-linejoin="miter" stroke-miterlimit="10" stroke-dasharray="" stroke-dashoffset="0" font-family="none" font-weight="none" font-size="none" text-anchor="none" style="mix-blend-mode: normal"></path></g><g transform="matrix(1,0,0,1,95.96875000000001,99)"><svg viewBox="0 0 128.06249999999997 162" height="162" width="128.06249999999997"><g><svg viewBox="0 0 128.06249999999997 162" height="162" width="128.06249999999997"><g><svg viewBox="0 0 128.06249999999997 162" height="162" width="128.06249999999997"><g><svg viewBox="0 0 128.06249999999997 162" height="162" width="128.06249999999997"><g id="SvgjsG1042"><svg viewBox="0 0 128.06249999999997 162" height="162" width="128.06249999999997" id="SvgjsSvg1041"><g><svg viewBox="0 0 128.06249999999997 162" height="162" width="128.06249999999997"><g transform="matrix(1,0,0,1,0,0)"><svg width="128.06249999999997" viewBox="0.45000001788139343 -37.5 34.14999771118164 43.20000076293945" height="162" data-palette-color="#6974f1"></svg></g></svg></g></svg></g></svg></g><g></g></svg></g></svg></g></svg></g></svg></g><defs><linearGradient x1="0" x2="1" y1="0.548" y2="0.55" id="SvgjsLinearGradient1039"><stop stop-color="#ff6cab" offset="0"></stop><stop stop-color="#7366ff" offset="1"></stop></linearGradient><linearGradient x1="0" x2="1" y1="0.548" y2="0.55" id="SvgjsLinearGradient1038"><stop stop-color="#ff6cab" offset="0"></stop><stop stop-color="#7366ff" offset="1"></stop></linearGradient></defs></svg></g></mask></svg><rect width="320" height="360" fill="none" stroke="none" visibility="hidden"></rect></g></svg></g></svg>